<?xml version="1.0" encoding="UTF-8" standalone="no"?>
<!-- Created with Inkscape (http://www.inkscape.org/) -->
<svg
   xmlns:dc="http://purl.org/dc/elements/1.1/"
   xmlns:cc="http://creativecommons.org/ns#"
   xmlns:rdf="http://www.w3.org/1999/02/22-rdf-syntax-ns#"
   xmlns:svg="http://www.w3.org/2000/svg"
   xmlns="http://www.w3.org/2000/svg"
   xmlns:xlink="http://www.w3.org/1999/xlink"
   xmlns:sodipodi="http://sodipodi.sourceforge.net/DTD/sodipodi-0.dtd"
   xmlns:inkscape="http://www.inkscape.org/namespaces/inkscape"
   id="svg2"
   sodipodi:version="0.32"
   inkscape:version="0.46"
   width="351.04245"
   height="351.04245"
   version="1.0"
   sodipodi:docname="pipe.svg"
   inkscape:output_extension="org.inkscape.output.svg.inkscape">
  <metadata
     id="metadata7">
    <rdf:RDF>
      <cc:Work
         rdf:about="">
        <dc:format>image/svg+xml</dc:format>
        <dc:type
           rdf:resource="http://purl.org/dc/dcmitype/StillImage" />
      </cc:Work>
    </rdf:RDF>
  </metadata>
  <defs
     id="defs5">
    <linearGradient
       inkscape:collect="always"
       id="linearGradient2430">
      <stop
         style="stop-color:#e9c6af;stop-opacity:1"
         offset="0"
         id="stop2432" />
      <stop
         style="stop-color:#d38d5f;stop-opacity:1"
         offset="1"
         id="stop2434" />
    </linearGradient>
    <linearGradient
       inkscape:collect="always"
       id="linearGradient3373">
      <stop
         style="stop-color:#deaa87;stop-opacity:1"
         offset="0"
         id="stop3375" />
      <stop
         style="stop-color:#28170b;stop-opacity:1"
         offset="1"
         id="stop3377" />
    </linearGradient>
    <linearGradient
       inkscape:collect="always"
       id="linearGradient3352">
      <stop
         style="stop-color:#f4e3d7;stop-opacity:1"
         offset="0"
         id="stop3354" />
      <stop
         style="stop-color:#f4e3d7;stop-opacity:1"
         offset="1"
         id="stop3356" />
    </linearGradient>
    <linearGradient
       inkscape:collect="always"
       id="linearGradient3264">
      <stop
         style="stop-color:#cccccc;stop-opacity:1;"
         offset="0"
         id="stop3266" />
      <stop
         style="stop-color:#333333;stop-opacity:1"
         offset="1"
         id="stop3268" />
    </linearGradient>
    <linearGradient
       inkscape:collect="always"
       id="linearGradient3242">
      <stop
         style="stop-color:#333333;stop-opacity:1"
         offset="0"
         id="stop3244" />
      <stop
         style="stop-color:#000000;stop-opacity:1"
         offset="1"
         id="stop3246" />
    </linearGradient>
    <linearGradient
       inkscape:collect="always"
       id="linearGradient3234">
      <stop
         style="stop-color:#e9c6af;stop-opacity:1"
         offset="0"
         id="stop3236" />
      <stop
         style="stop-color:#a05a2c;stop-opacity:1"
         offset="1"
         id="stop3238" />
    </linearGradient>
    <inkscape:perspective
       sodipodi:type="inkscape:persp3d"
       inkscape:vp_x="0 : 526.18109 : 1"
       inkscape:vp_y="0 : 1000 : 0"
       inkscape:vp_z="744.09448 : 526.18109 : 1"
       inkscape:persp3d-origin="372.04724 : 350.78739 : 1"
       id="perspective9" />
    <radialGradient
       inkscape:collect="always"
       xlink:href="#linearGradient3206"
       id="radialGradient3250"
       gradientUnits="userSpaceOnUse"
       gradientTransform="matrix(2.376087,3.1954275,-1.0602033,0.7883529,-5527.3878,-6801.3909)"
       cx="2197.3462"
       cy="-317.20523"
       fx="2197.3462"
       fy="-317.20523"
       r="122.04946" />
    <radialGradient
       inkscape:collect="always"
       xlink:href="#linearGradient3206"
       id="radialGradient3212"
       cx="2197.3462"
       cy="-317.20523"
       fx="2197.3462"
       fy="-317.20523"
       r="122.04946"
       gradientTransform="matrix(2.376087,3.1954275,-1.0602033,0.7883529,-5527.3878,-6801.3909)"
       gradientUnits="userSpaceOnUse" />
    <inkscape:perspective
       sodipodi:type="inkscape:persp3d"
       inkscape:vp_x="0 : 526.18109 : 1"
       inkscape:vp_y="0 : 1000 : 0"
       inkscape:vp_z="744.09448 : 526.18109 : 1"
       inkscape:persp3d-origin="372.04724 : 350.78739 : 1"
       id="perspective2514" />
    <linearGradient
       id="linearGradient3172">
      <stop
         style="stop-color:#f4e3d7;stop-opacity:1"
         offset="0"
         id="stop3174" />
      <stop
         id="stop3180"
         offset="0.36934566"
         style="stop-color:#967b69;stop-opacity:1" />
      <stop
         style="stop-color:#2b1100;stop-opacity:1"
         offset="1"
         id="stop3176" />
    </linearGradient>
    <linearGradient
       inkscape:collect="always"
       id="linearGradient3206">
      <stop
         style="stop-color:#e9c6af;stop-opacity:1"
         offset="0"
         id="stop3208" />
      <stop
         style="stop-color:#784421;stop-opacity:1"
         offset="1"
         id="stop3210" />
    </linearGradient>
    <filter
       inkscape:collect="always"
       id="filter3348">
      <feGaussianBlur
         inkscape:collect="always"
         stdDeviation="3.6250407"
         id="feGaussianBlur3350" />
    </filter>
    <filter
       inkscape:collect="always"
       id="filter3483">
      <feGaussianBlur
         inkscape:collect="always"
         stdDeviation="2.8675473"
         id="feGaussianBlur3485" />
    </filter>
    <filter
       inkscape:collect="always"
       id="filter3487">
      <feGaussianBlur
         inkscape:collect="always"
         stdDeviation="3.5300979"
         id="feGaussianBlur3489" />
    </filter>
    <linearGradient
       inkscape:collect="always"
       xlink:href="#linearGradient3242"
       id="linearGradient3529"
       gradientUnits="userSpaceOnUse"
       x1="243.47296"
       y1="203.83783"
       x2="381.7915"
       y2="292.22769" />
    <linearGradient
       inkscape:collect="always"
       xlink:href="#linearGradient3264"
       id="linearGradient3531"
       gradientUnits="userSpaceOnUse"
       x1="319.87119"
       y1="258.90961"
       x2="355.77994"
       y2="261.26834" />
    <linearGradient
       inkscape:collect="always"
       xlink:href="#linearGradient3234"
       id="linearGradient3533"
       gradientUnits="userSpaceOnUse"
       gradientTransform="matrix(1.0244933,0,0,1.2563053,-20.145868,9.5033265)"
       x1="302.37973"
       y1="149.25591"
       x2="406.07779"
       y2="149.25591" />
    <linearGradient
       inkscape:collect="always"
       xlink:href="#linearGradient3352"
       id="linearGradient3535"
       gradientUnits="userSpaceOnUse"
       x1="303.21936"
       y1="184.21454"
       x2="390.78403"
       y2="217.27498" />
    <linearGradient
       inkscape:collect="always"
       xlink:href="#linearGradient3373"
       id="linearGradient3537"
       gradientUnits="userSpaceOnUse"
       x1="336.93372"
       y1="180.60477"
       x2="336.56372"
       y2="227.56566" />
    <filter
       inkscape:collect="always"
       id="filter3560">
      <feGaussianBlur
         inkscape:collect="always"
         stdDeviation="2.0230658"
         id="feGaussianBlur3562" />
    </filter>
    <linearGradient
       inkscape:collect="always"
       xlink:href="#linearGradient2430"
       id="linearGradient2436"
       x1="147.51477"
       y1="160.59872"
       x2="384.90494"
       y2="390.6907"
       gradientUnits="userSpaceOnUse" />
    <linearGradient
       inkscape:collect="always"
       xlink:href="#linearGradient2430"
       id="linearGradient2441"
       gradientUnits="userSpaceOnUse"
       x1="147.51477"
       y1="160.59872"
       x2="384.90494"
       y2="390.6907" />
    <linearGradient
       inkscape:collect="always"
       xlink:href="#linearGradient2430"
       id="linearGradient2449"
       gradientUnits="userSpaceOnUse"
       x1="147.51477"
       y1="160.59872"
       x2="384.90494"
       y2="390.6907" />
    <linearGradient
       inkscape:collect="always"
       xlink:href="#linearGradient2430"
       id="linearGradient2466"
       gradientUnits="userSpaceOnUse"
       x1="147.51477"
       y1="160.59872"
       x2="384.90494"
       y2="390.6907" />
    <linearGradient
       inkscape:collect="always"
       xlink:href="#linearGradient3242"
       id="linearGradient2468"
       gradientUnits="userSpaceOnUse"
       x1="243.47296"
       y1="203.83783"
       x2="381.7915"
       y2="292.22769" />
    <linearGradient
       inkscape:collect="always"
       xlink:href="#linearGradient3264"
       id="linearGradient2470"
       gradientUnits="userSpaceOnUse"
       x1="319.87119"
       y1="258.90961"
       x2="355.77994"
       y2="261.26834" />
    <linearGradient
       inkscape:collect="always"
       xlink:href="#linearGradient3234"
       id="linearGradient2472"
       gradientUnits="userSpaceOnUse"
       gradientTransform="matrix(1.0244933,0,0,1.2563053,-20.145868,9.5033265)"
       x1="302.37973"
       y1="149.25591"
       x2="406.07779"
       y2="149.25591" />
    <linearGradient
       inkscape:collect="always"
       xlink:href="#linearGradient3352"
       id="linearGradient2474"
       gradientUnits="userSpaceOnUse"
       x1="303.21936"
       y1="184.21454"
       x2="390.78403"
       y2="217.27498" />
    <linearGradient
       inkscape:collect="always"
       xlink:href="#linearGradient3373"
       id="linearGradient2476"
       gradientUnits="userSpaceOnUse"
       x1="336.93372"
       y1="180.60477"
       x2="336.56372"
       y2="227.56566" />
  </defs>
  <sodipodi:namedview
     inkscape:window-height="480"
     inkscape:window-width="640"
     inkscape:pageshadow="2"
     inkscape:pageopacity="0.0"
     guidetolerance="10.0"
     gridtolerance="10.0"
     objecttolerance="10.0"
     borderopacity="1.0"
     bordercolor="#666666"
     pagecolor="#ffffff"
     id="base"
     showgrid="false"
     inkscape:zoom="0.87417974"
     inkscape:cx="272.69273"
     inkscape:cy="178.90141"
     inkscape:current-layer="g3572"
     showguides="true"
     inkscape:guide-bbox="true" />
  <g
     id="g3572"
     transform="translate(-70.423625,-49.291129)">
    <g
       id="g2451"
       transform="translate(-21.734661,-28.598238)">
      <g
         transform="translate(0,4)"
         id="g2444">
        <path
           sodipodi:type="arc"
           style="fill:url(#linearGradient2466);fill-opacity:1;fill-rule:evenodd;stroke:#deaa87;stroke-width:1px;stroke-linecap:butt;stroke-linejoin:miter;stroke-opacity:1"
           id="path2428"
           sodipodi:cx="245.94484"
           sodipodi:cy="259.9938"
           sodipodi:rx="147.56691"
           sodipodi:ry="147.56691"
           d="M 393.51175,259.9938 A 147.56691,147.56691 0 1 1 98.37793,259.9938 A 147.56691,147.56691 0 1 1 393.51175,259.9938 z"
           transform="matrix(1.1854183,0,0,1.1854183,-23.868003,-58.790823)" />
      </g>
      <g
         transform="matrix(-1,0,0,1,520.00766,0)"
         id="g3564">
        <g
           transform="matrix(0.6174776,0.2574864,-0.2574864,0.6174776,155.61137,74.823034)"
           id="g3511">
          <path
             style="fill:#784421;fill-rule:evenodd;stroke:#5d2d07;stroke-width:1px;stroke-linecap:butt;stroke-linejoin:miter;stroke-opacity:1"
             d="M 70.625,146.09375 C 85.296363,145.98922 100.01396,144.38302 114.65625,146.5 C 134.12022,148.34317 153.42919,155.01895 167.73541,168.67273 C 189.58101,186.25639 207.75418,208.78272 217.72237,235.2412 C 233.66434,265.75231 258.38083,292.28023 288.96875,308.4375 C 300.89008,314.56592 314.25943,317.93252 327.75,317.28125 C 345.77659,320.43584 361.02173,306.53932 369.80126,292.32191 C 389.89637,259.44213 394.46803,219.44371 391.7667,181.44481 C 393.15361,174.61193 387.93938,174.94373 382.65625,175.4375 C 346.63542,175.4375 310.61458,175.4375 274.59375,175.4375 C 272.3233,176.71343 274.1289,180.86133 273.84375,183.78125 C 272.26344,204.68442 273.69556,225.77018 277.96875,246.25 C 233.94268,219.14987 213.64004,166.01811 168.3125,140.3125 C 156.99308,134.40915 144.83417,128.37667 131.62509,129.67399 C 111.23071,129.35997 90.952502,126.9727 70.625,125.53125 C 52.155947,139.10144 67.656726,140.31895 70.625,146.09375 z"
             id="path3513"
             sodipodi:nodetypes="cccccccccccccccc" />
          <path
             style="fill:#d38d5f;fill-rule:evenodd;stroke:#a05a2c;stroke-width:1px;stroke-linecap:butt;stroke-linejoin:miter;stroke-opacity:1;filter:url(#filter3348)"
             d="M 78.625,137.71875 C 109.34121,136.16341 143.27761,138.37518 167.98012,158.39096 C 194.65399,178.58264 215.52536,206.16345 227.98833,237.26998 C 246.3137,268.6124 273.90912,296.98692 309.36741,307.42348 C 323.59751,310.35267 340.77048,312.35473 352.15625,301.15625 C 368.04277,286.46233 374.87545,264.88249 380.04155,244.48827 C 384.38733,224.53971 385.28242,203.80347 383.8125,183.375 C 349.68848,183.8001 315.56174,183.12702 281.4375,183.5 C 280.61761,207.90375 281.85195,232.71437 288.5,256.15625 C 288.13136,261.40226 281.64594,258.82971 279.21875,256.65625 C 231.45592,230.21799 210.29337,173.9247 163.34375,146.59375 C 150.75142,139.16459 136.29537,136.32918 121.78125,137.34375 C 107.36296,136.82431 92.999482,135.38926 78.625,134.21875 C 78.625,135.38542 78.625,136.55208 78.625,137.71875 z"
             id="path3515" />
          <path
             style="fill:url(#linearGradient2468);fill-opacity:1;fill-rule:evenodd;stroke:#535050;stroke-width:1px;stroke-linecap:butt;stroke-linejoin:miter;stroke-opacity:1"
             d="M 272.88936,173.72599 C 272.84504,174.0984 272.80693,174.47731 272.76436,174.85099 L 271.20186,174.85099 C 271.58307,177.86062 271.77592,180.89461 271.92061,183.91349 C 271.51886,189.36956 271.29561,194.93128 271.29561,200.60099 C 271.29558,215.22804 272.68426,229.23975 275.17061,242.19474 C 252.72441,227.20883 236.57119,205.47961 219.42061,184.72599 C 209.32406,186.7554 199.38181,189.00084 199.82686,205.78849 C 204.19966,212.09153 208.19917,218.88808 211.70186,226.35099 C 225.03204,263.8036 278.78083,322.84087 326.63936,319.41349 C 326.6594,319.41743 326.68178,319.40958 326.70186,319.41349 C 328.7548,319.81367 330.84455,320.03849 332.95186,320.03849 C 366.99863,320.03848 394.63936,266.53598 394.63936,200.60099 C 394.63933,191.35634 394.07354,182.36897 393.04561,173.72599 L 386.73311,173.72599 L 272.88936,173.72599 z"
             id="path3517"
             sodipodi:nodetypes="ccccscccccsssccc" />
          <path
             style="opacity:0.74396135;fill:#4d4d4d;fill-rule:evenodd;stroke:#4d4d4d;stroke-width:1px;stroke-linecap:butt;stroke-linejoin:miter;stroke-opacity:1;filter:url(#filter3483)"
             d="M 330.49409,198.18412 C 316.06701,198.20495 317.63992,198.22579 303.21284,198.24662 C 301.29897,226.63558 301.65517,254.57341 308.74409,281.84037 C 281.28355,273.67142 226.74721,219.87147 207.59182,199.15227 C 219.52763,223.42738 260.11623,279.32914 282.43159,294.30912 C 297.76568,304.04372 316.61346,311.09709 334.86909,307.40287 C 358.35741,291.83658 356.07399,223.8761 355.90034,198.18412 C 341.43155,198.14864 344.96288,198.15432 330.49409,198.18412 z"
             id="path3519"
             sodipodi:nodetypes="cccccccc" />
          <path
             style="opacity:0.77777782;fill:url(#linearGradient2470);fill-opacity:1;fill-rule:evenodd;stroke:none;stroke-width:1px;stroke-linecap:butt;stroke-linejoin:miter;stroke-opacity:1;filter:url(#filter3487)"
             d="M 330.5,206.1875 C 323.92708,206.20833 317.35417,206.22917 310.78125,206.25 C 309.02431,235.63517 311.01076,265.61486 320.375,293.5625 C 302.66542,289.11136 265.11998,261.84866 249.68062,253.46549 C 263.08132,273.49151 303.29465,307.67703 329.8125,300.21875 C 338.02874,296.21273 339.86946,285.81433 342.5625,277.9375 C 347.99585,254.63467 347.99421,230.14803 348,206.1875 C 342.16698,206.11589 336.33325,206.18069 330.5,206.1875 z"
             id="path3521"
             sodipodi:nodetypes="cccccccc" />
          <path
             style="fill:url(#linearGradient2472);fill-opacity:1;fill-rule:evenodd;stroke:none;stroke-width:0.99492574px;stroke-linecap:butt;stroke-linejoin:miter;stroke-opacity:1"
             d="M 269.06521,163.48243 L 395.37493,163.48243 L 395.37493,218.36469 C 351.9959,236.38108 310.22435,232.72998 269.06521,218.36469 L 269.06521,163.48243 z"
             id="path3523"
             sodipodi:nodetypes="ccccc" />
          <path
             transform="matrix(1.06491,0,0,1.0542989,-19.561879,-50.483203)"
             d="M 390.07998,202.79732 A 59.484333,13.727154 0 1 1 271.11131,202.79732 A 59.484333,13.727154 0 1 1 390.07998,202.79732 z"
             sodipodi:ry="13.727154"
             sodipodi:rx="59.484333"
             sodipodi:cy="202.79732"
             sodipodi:cx="330.59564"
             id="path3525"
             style="fill:#d38d5f;fill-opacity:1;fill-rule:evenodd;stroke:url(#linearGradient2474);stroke-width:1.45382738;stroke-linecap:butt;stroke-linejoin:miter;stroke-miterlimit:4;stroke-dasharray:none;stroke-opacity:1"
             sodipodi:type="arc" />
          <path
             sodipodi:type="arc"
             style="fill:url(#linearGradient2476);fill-opacity:1;fill-rule:evenodd;stroke:none;stroke-width:1px;stroke-linecap:butt;stroke-linejoin:miter;stroke-opacity:1"
             id="path3527"
             sodipodi:cx="330.59564"
             sodipodi:cy="202.79732"
             sodipodi:rx="59.484333"
             sodipodi:ry="13.727154"
             d="M 390.07998,202.79732 A 59.484333,13.727154 0 1 1 271.11131,202.79732 A 59.484333,13.727154 0 1 1 390.07998,202.79732 z"
             transform="matrix(0.9473928,0,0,0.8222931,19.703135,-2.1993569)" />
        </g>
        <path
           style="opacity:0.48309183;fill:#aaa0a0;fill-opacity:1;fill-rule:evenodd;stroke:none;stroke-width:15;stroke-linecap:butt;stroke-linejoin:miter;stroke-miterlimit:4;stroke-dasharray:none;stroke-opacity:1;filter:url(#filter3560)"
           d="M 255.4375,161.09375 C 259.47848,163.39146 267.56859,172.36495 269.625,175.5625 C 271.61657,178.65923 271.943,181.75126 269.90625,184.53125 C 266.90371,186.39131 262.96576,187.7678 257.875,188.71875 L 256.75,188.9375 L 256,189.46875 C 251.35649,192.76165 249.65028,196.07933 250.40625,198.96875 C 251.16223,201.85818 254.41187,204.18903 258.6875,205.4375 C 260.82532,206.06174 263.20239,206.41599 265.6875,206.46875 C 268.17261,206.5215 270.72627,206.28666 273.15625,205.6875 C 277.24092,204.68037 280.82175,202.70741 283.28125,199.875 L 306.53125,194.21875 C 311.36826,193.0261 316.26459,193.23339 320.28125,194.40625 C 324.29791,195.5791 327.32724,197.66406 328.09375,200.59375 C 328.8161,203.35468 327.35489,207.08508 321.4375,211.59375 C 310.5262,213.8538 301.07436,217.1997 293.96875,221.84375 L 293.28125,222.28125 L 292.875,222.8125 C 286.81503,230.42698 288.01021,238.6161 292.71875,245.9375 C 297.42729,253.2589 299.93856,258.94994 308.875,264.03125 L 333.53125,270.375 C 325.96101,266.07054 310.75865,249.30267 306.90625,243.3125 C 303.17531,237.51119 302.55942,231.70794 306.375,226.5 C 311.99987,223.01544 319.3694,220.43772 328.90625,218.65625 L 331.0625,218.25 L 332.4375,217.28125 C 341.13652,211.11244 344.35371,204.88168 342.9375,199.46875 C 341.52129,194.05582 335.44731,189.68259 327.4375,187.34375 C 323.43259,186.17433 318.93677,185.47383 314.28125,185.375 C 309.62573,185.27618 304.8335,185.78382 300.28125,186.90625 C 291.91442,188.96923 284.65559,193.14313 280.0625,199.28125 L 269.84375,201.78125 C 267.26177,202.41789 264.64408,202.28232 262.5,201.65625 C 260.35591,201.03018 258.72166,199.93887 258.3125,198.375 C 257.92692,196.90123 258.7163,194.90672 261.875,192.5 C 267.69945,191.29358 272.73828,189.51024 276.53125,187.03125 L 276.90625,186.78125 L 277.125,186.5 C 280.3598,182.4354 279.73216,178.06441 277.21875,174.15625 L 255.4375,161.09375 z"
           id="path3539"
           transform="matrix(0.9511655,0.3086814,-0.3086814,0.9511655,97.26228,-86.727022)" />
      </g>
    </g>
  </g>
</svg>
